<svg xmlns="http://www.w3.org/2000/svg" version="1.1" id="drawingboard" width="2000px" height="1000px" >
    <defs>
        <pattern id="grid" width="40" height="40" patternUnits="userSpaceOnUse">
            <rect fill="#dddddd" x="0" y="0" width="20" height="20"/>
            <rect fill="#ffffff" x="20" y="0" width="20" height="20"/>
            <rect fill="#dddddd" x="20" y="20" width="20" height="20"/>
            <rect fill="#ffffff" x="0" y="20" width="20" height="20"/>
        </pattern>
        <radialGradient id="inputgradient" cx="50%" cy="50%" r="50%" fx="50%" fy="50%">
          <stop offset="0%" style="stop-color:rgb(17,152,196);" />
          <stop offset="100%" style="stop-color:rgb(25,87,130);" />
        </radialGradient>
        <radialGradient id="gategradient" cx="50%" cy="50%" r="50%" fx="50%" fy="50%">
          <stop offset="0%" style="stop-color:rgb(4,75,0);" />
          <stop offset="100%" style="stop-color:rgb(7,143,0);" />
        </radialGradient>
        <radialGradient id="outputgradient" cx="50%" cy="50%" r="50%" fx="50%" fy="50%">
          <stop offset="0%" style="stop-color:rgb(192,17,17);" />
          <stop offset="100%" style="stop-color:rgb(130,25,25);" />
        </radialGradient>
    </defs>
    <rect fill="url(#grid)" x="0" y="0" width="100%" height="100%"/>
    {% for block in blocks %}
        {% if block.type == block_types.input %}
            <svg class="object" data-id="{{ block.id }}" data-in="0" data-out="1" width="130px" height="80px"
                 x="{{ block.x }}px" y="{{ block.y }}px">
                <polygon points="10,0 0,10 0,55 10,65 50,65 65,80 80,65 120,65 130,55 130,10 120,0"
                         fill="url(#inputgradient)" />
                <text x="65px" y="20px" text-anchor="middle" dy="0.5ex" fill="#fff">{{ block.label.0 }}</text>
                <text x="65px" y="35px" text-anchor="middle" dy="0.5ex" fill="#fff">{{ block.label.1 }}</text>
                <text x="65px" y="50px" text-anchor="middle" dy="0.5ex" fill="#fff">{{ block.label.2 }}</text>
            </svg>
            {% for link in block.outputs.all %}
                <path class="wire object{{ link.start.id }} object{{ link.end.id }}" data-id="{{ link.id }}"
                      d="M {{ link.start_x }} {{ link.start_y }} c 0 50 {{ link.end_x }} {{ link.end_y_50 }}
                         {{ link.end_x }} {{ link.end_y }}"
                      style="stroke:rgb(255,0,0);stroke-width:2" fill="none" />
            {% endfor %}
        {% elif block.type == block_types.gate %}
            <svg class="object" data-id="{{ block.id }}" data-in="1" data-out="1" width="60px" height="60px"
                 x="{{ block.x }}px" y="{{ block.y }}px">
                <polygon points="0,0 0,45 30,60 60,45 60,0 30,15" fill="url(#gategradient)" />
                <text x="30px" y="33px" text-anchor="middle" dy="0.5ex" fill="#fff">{{ block.label.0 }}</text>
            </svg>
            {% for link in block.outputs.all %}
                <path class="wire object{{ link.start.id }} object{{ link.end.id }}" data-id="{{ link.id }}"
                      d="M {{ link.start_x }} {{ link.start_y }} c 0 50 {{ link.end_x }} {{ link.end_y_50 }}
                         {{ link.end_x }} {{ link.end_y }}"
                      style="stroke:rgb(255,0,0);stroke-width:2" fill="none" />
            {% endfor %}
        {% elif block.type == block_types.output %}
            <svg class="object" data-id="{{ block.id }}" data-in="1" data-out="0" width="130px" height="70px"
                 x="{{ block.x }}px" y="{{ block.y }}px">
                <polygon points="10,0 0,10 0,60 10,70 120,70 130,60 130,10 120,0 80,0 65,15 50,0"
                         fill="url(#outputgradient)" />
                <text x="65px" y="30px" text-anchor="middle" dy="0.5ex" fill="#fff">{{ block.label.0 }}</text>
                <text x="65px" y="45px" text-anchor="middle" dy="0.5ex" fill="#fff">{{ block.label.1 }}</text>
                <text x="65px" y="60px" text-anchor="middle" dy="0.5ex" fill="#fff">{{ block.label.2 }}</text>
            </svg>
        {% endif %}
    {% endfor %}
</svg>